<svg xmlns="http://www.w3.org/2000/svg" xmlns:xlink="http://www.w3.org/1999/xlink" width="156" height="24" viewBox="0 0 156 24">
    <defs>
        <path id="a" d="M0 0h156v24H0z"/>
    </defs>
    <g fill="none" fill-rule="evenodd">
        <mask id="b" fill="#fff">
            <use xlink:href="#a"/>
        </mask>
        <path fill="#FFFFFE" d="M106.002 8.896c-.512-1.038-1.59-1.483-2.697-1.43-1.068.05-1.847.739-2.441 1.585-.673.957-1.145 2.05-1.694 3.08-.53.993-1.1 1.966-1.861 2.798a6.998 6.998 0 0 1-3.1 1.982c.552.402 1.317.492 1.975.518.746.03 1.499-.04 2.232-.173 1.339-.242 2.784-.717 3.774-1.707-1.545.02-2.79-1.03-2.9-2.615.992 1.217 2.496 1.687 4 1.253 1.318-.38 2.377-1.434 2.804-2.748.27-.834.297-1.74-.092-2.543zm-.049-1.152c-.501-1.688-1.518-3.168-2.867-4.422-1.458-1.348-3.19-2.37-5.005-3.14a22.422 22.422 0 0 0-.44-.182c-2.235 2.71-9.975 4.733-9.975 10.413 0 2.222 1.388 4.298 3.423 5.131a5.15 5.15 0 0 0 3.844-.206c1.175-.541 2.069-1.495 2.79-2.557.76-1.122 1.338-2.354 2.06-3.499.672-1.064 1.53-2.125 2.803-2.425 1.155-.272 2.522.032 3.367.887zM83.34 4.438c.619-.023 1.122-.584 1.125-1.253.003-.67-.496-1.193-1.116-1.17-.618.022-1.123.583-1.125 1.252-.003.67.497 1.194 1.116 1.171zM66.45 4.082c.68-.024 1.154-.613 1.156-1.316.004-.703-.465-1.253-1.145-1.229-.68.024-1.233.613-1.236 1.315-.004.703.545 1.253 1.225 1.23zM43.872 7.249c.712 0 1.12.662 1.05 1.615-.083 1.12-.888 2.398-2.286 3.406-.732-2.104-.188-5.021 1.236-5.021zm-9.52 15.187c-.731 0-1.118-.702-1.118-1.498 0-2.143 1.554-3.281 3.471-4.257-.088 4.685-1.163 5.755-2.352 5.755zM84.25 8.087c0-1.253-.074-2.09-.885-2.09-.37 0-.55.073-.873.182.287 4.238-.66 7.97-1.814 7.97-1.515 0-.758-9.083-3.968-9.083-2.957 0-3.383 7.25-3.718 7.25-.23 0-.265-1.904-.253-3.355.125-.696.19-1.32.19-1.795 0-.675-.27-1.843-1.784-1.26.053 5.185-.974 8.32-2.128 8.32-1.695 0-1.713-4.702-1.713-5.998 0-1.265.09-2.956-1.767-2.354-.278 4.524-1.448 7.937-2.186 7.937-1.102 0-.88-7.814-3.262-7.814-2.14 0-2.801 7.4-3.247 7.4-.799 0 .249-8.331-2.842-8.331-1.621 0-2.265 2.782-2.9 5.895-.124.604-.253.621-.274-.058a45.203 45.203 0 0 1-.015-1.745c.78-3.13-.172-4.285-1.604-3.451.462 5.774-2.157 8.597-4.167 8.597-.727 0-1.297-.312-1.724-.806 2.41-1.495 3.48-3.213 3.48-4.888 0-1.819-1.03-2.865-2.744-2.865-2.39 0-3.728 2.491-3.728 4.608 0 1.14.21 2.108.557 2.906-.821.397-1.596.74-2.317 1.073-.062-2.18-.305-4.468-.49-6.578-1.272-.354-1.644.265-1.742 1.412-.226 2.615-1.183 4.239-2.03 4.239-.637 0-1.025-.785-1.072-1.62-.236-4.192 3.126-5.357 4.885-4.75.365-.924-.036-1.59-1.622-1.59-1.924 0-3.363 1.184-4.418 2.7-.704 1.013-1.516 1.731-2.597 2.6.027-.251.042-.5.042-.745 0-2.958-1.582-4.255-3.094-4.255-1.25 0-2.037.76-2.492 1.923-.113-1.166-.342-1.67-1.013-1.67-.288 0-.686.082-1.114.291.196.652.272 2.097.272 3.048 0 3.555-1.007 5.148-1.975 5.148-1.107 0-1.282-4.216-1.375-5.857-.143-.05-.299-.101-.542-.101-1.001 0-1.132 1.36-1.379 2.612-.273 1.386-1.063 3.13-2.232 3.13-.705 0-1.146-.69-1.203-1.928-.114-2.514 1.952-5.493 5.186-4.567.424-1-.241-1.763-1.583-1.763-2.363 0-4.317 1.79-5.169 3.91-.865 1.94-2.38 4.793-5.46 4.793-2.175 0-3.839-1.918-3.839-5.947 0-3.473 2.163-6.772 4.471-6.772 1.615 0 1.99 1.608 1.847 3.116.835.68 2.207.049 2.207-1.65 0-1.17-.938-3.153-3.968-3.153C3.314.308 0 4.092 0 9.068c0 4.815 2.416 7.662 5.834 7.662 2.157 0 4.193-1.246 5.598-3.545.353 2.013 1.707 2.86 2.723 2.86 1.644 0 2.717-1.077 3.303-2.535.366 1.46 1.139 2.54 2.42 2.54.903 0 1.607-.462 2.138-1.206-.21 5.075-.476 8.31 2.487 7.673-.458-1.442-.604-4.07-.604-6.427 0-6.454 1.052-8.577 2.37-8.577.955 0 1.264 1.232 1.264 2.546 0 .704-.066 1.513-.242 2.244-1.622 1.033-2.915 1.85-2.915 2.887 0 .82.6.897 1.121.897 1.245 0 2.742-1.235 3.57-3.567.723-.443 1.448-.95 2.142-1.642a7.19 7.19 0 0 0-.037.717c0 2.315 1.002 3.712 2.6 3.712 1.251 0 2.19-.897 2.853-2.244.042.776.068 1.49.08 2.148-2.54 1.188-5.35 2.395-5.35 5.748 0 1.734 1.237 3.041 2.85 3.041 3.537 0 4.344-3.78 4.377-8.169a62.566 62.566 0 0 0 3-1.39c.846 1.072 1.996 1.609 3.052 1.609 1.996 0 3.495-1.07 4.7-3.242.213 1.653.637 3.242 1.504 3.242 1.583 0 1.903-8.375 3.08-8.375.902 0 .161 9.062 2.541 9.062 2.038 0 2.42-7.974 3.412-7.974.703 0 .758 7.288 2.976 7.288 1.091 0 2.276-1.326 2.869-4.108.278 1.85 1.201 4.108 3.005 4.108 1.052 0 1.956-1.077 2.654-2.509.193 1.474.605 2.51 1.401 2.51 2.074 0 2.004-8.358 3.646-8.358 1.28 0 .883 8.357 3.93 8.357 1.452 0 2.139-1.25 2.547-2.82.562 2.309 1.468 2.82 2.213 2.82.471 0 .828-.167 1.296-.732-2.357-1.035-2.158-4.8-2.158-7.232zm64.582.387a3.579 3.579 0 0 0-.677-1.446c-.32-.4-.75-.71-1.288-.932-.539-.222-1.21-.333-2.011-.333-.853 0-1.63.057-2.332.171-.702.114-1.272.235-1.71.362v8.608c-.001.563.45 1.019 1.006 1.019H143.088v-8.03c.15-.024.382-.056.696-.094.313-.038.614-.057.902-.057.389 0 .718.054.987.161.27.108.483.28.64.514.156.235.269.54.338.913.069.375.103.828.103 1.36v3.96h.001v.254c0 .563.45 1.019 1.007 1.019h1.267V10.33c0-.672-.066-1.29-.197-1.855zm-27.475 0a3.582 3.582 0 0 0-.677-1.446c-.32-.4-.749-.71-1.288-.932-.539-.222-1.209-.333-2.011-.333-.853 0-1.63.057-2.331.171-.702.114-1.273.235-1.711.362v8.608c0 .563.45 1.019 1.006 1.019h1.269v-8.03c.15-.024.382-.056.695-.094.313-.038.614-.057.903-.057.388 0 .717.054.987.161.269.108.482.28.639.514.156.235.27.54.338.913.069.375.104.828.104 1.36v4.214c0 .563.45 1.019 1.007 1.019h1.268V10.33c0-.672-.066-1.29-.198-1.855zm8.147-2.46c-.607 0-.767.323-1.014.997l-1.923 5.6-2.004-5.494c-.247-.722-.443-1.099-1.05-1.098l-1.12-.005-.553.005 3.394 8.912c.313.668.518.992 1.125.992l1.134-.01 3.728-9.897-1.717-.002zM111.95 7.521c0-.836-.67-1.515-1.497-1.515h-.77l-.002 8.263c0 .913.73 1.654 1.633 1.654h.633l.003-8.402zm-.167-5.458a1.39 1.39 0 0 0-.974-.38c-.387 0-.719.126-.994.38-.274.252-.412.6-.412 1.042 0 .43.137.77.412 1.024.274.253.606.38.993.38.375 0 .7-.127.974-.38.275-.252.413-.594.413-1.023 0-.443-.138-.79-.412-1.043zm25.773 7.808c0-.315-.043-.614-.13-.898a2.165 2.165 0 0 0-.383-.737 1.82 1.82 0 0 0-.616-.491 1.943 1.943 0 0 0-.868-.18c-.349 0-.653.066-.915.198a2.086 2.086 0 0 0-.663.52c-.18.214-.32.46-.42.736-.1.278-.168.561-.205.85l4.2.002zm-6.553 1.018c0-.87.128-1.631.382-2.286.256-.655.596-1.2 1.019-1.634a4.206 4.206 0 0 1 1.457-.982 4.47 4.47 0 0 1 1.68-.33c1.345 0 2.393.423 3.145 1.267.753.844 1.13 2.104 1.13 3.779a10.373 10.373 0 0 1-.038.85l-6.442-.002c.062.794.339 1.408.83 1.843.492.435 1.204.652 2.138.652a6.955 6.955 0 0 0 1.826-.227.725.725 0 0 1 .885.6l.164 1.026c-.124.064-.296.13-.514.199a7.11 7.11 0 0 1-.746.188c-.28.057-.582.104-.906.142a8.5 8.5 0 0 1-.99.056c-.858 0-1.605-.13-2.24-.388-.635-.258-1.157-.617-1.568-1.077a4.417 4.417 0 0 1-.914-1.626 6.7 6.7 0 0 1-.298-2.05zm19.96-7.785l1.286-.215v3.073h3.484v.82c0 .564-.451 1.02-1.007 1.02L152.25 7.8l-.001 4.038c0 .797.124 1.366.374 1.707.25.34.674.512 1.273.512.413 0 .778-.044 1.097-.132.318-.089.572-.17.759-.246l.232 1.128a.817.817 0 0 1-.572.953l-.316.09c-.425.12-.925.18-1.5.18-.7-.001-1.283-.096-1.751-.286a2.586 2.586 0 0 1-1.115-.825 3.292 3.292 0 0 1-.58-1.309 8.258 8.258 0 0 1-.168-1.754l.002-7.583c0-.58.415-1.075.981-1.17z" mask="url(#b)"/>
    </g>
</svg>
